<svg width="1280" height="800" viewBox="0 0 1280 800" fill="none" xmlns="http://www.w3.org/2000/svg">
  <rect width="1280" height="800" rx="24" fill="#09070F"/>
  <rect x="40" y="40" width="1200" height="720" rx="20" fill="#121022" stroke="#2C254A"/>
  <rect x="78" y="78" width="1124" height="72" rx="14" fill="#16132A"/>
  <rect x="106" y="102" width="224" height="24" rx="12" fill="#8B5CF6"/>
  <rect x="78" y="180" width="560" height="300" rx="24" fill="url(#og)"/>
  <rect x="112" y="228" width="318" height="32" rx="16" fill="#F5F2FF"/>
  <rect x="112" y="276" width="392" height="18" rx="9" fill="#D3CAF6"/>
  <rect x="112" y="310" width="382" height="18" rx="9" fill="#B7AEDC"/>
  <rect x="112" y="356" width="184" height="40" rx="20" fill="#8B5CF6"/>
  <rect x="670" y="180" width="532" height="140" rx="20" fill="#171430"/>
  <rect x="670" y="340" width="532" height="140" rx="20" fill="#171430"/>
  <rect x="670" y="500" width="532" height="140" rx="20" fill="#171430"/>
  <rect x="78" y="510" width="560" height="130" rx="20" fill="#171430"/>
  <rect x="112" y="548" width="200" height="20" rx="10" fill="#DDD5FF"/>
  <rect x="112" y="582" width="312" height="14" rx="7" fill="#B7AEDC"/>
  <defs>
    <linearGradient id="og" x1="78" y1="180" x2="638" y2="480" gradientUnits="userSpaceOnUse">
      <stop stop-color="#8B5CF6"/>
      <stop offset="1" stop-color="#3D2A68"/>
    </linearGradient>
  </defs>
</svg>
